<svg width="20" height="21" viewBox="0 0 20 21" fill="none" xmlns="http://www.w3.org/2000/svg">
<mask id="mask0_2_427" style="mask-type:alpha" maskUnits="userSpaceOnUse" x="0" y="0" width="20" height="21">
<rect y="0.5" width="20" height="20" fill="#D9D9D9"/>
</mask>
<g mask="url(#mask0_2_427)">
<path d="M14.2278 10.9161H4.58366C4.46505 10.9161 4.36595 10.8763 4.28637 10.7967C4.20678 10.7171 4.16699 10.618 4.16699 10.4994C4.16699 10.3808 4.20678 10.2817 4.28637 10.2021C4.36595 10.1225 4.46505 10.0827 4.58366 10.0827L14.2278 10.0827L11.1157 6.97064C11.0345 6.88939 10.992 6.79377 10.9882 6.68377C10.9845 6.57363 11.027 6.47266 11.1157 6.38085C11.2075 6.28891 11.3066 6.24217 11.413 6.24065C11.5193 6.23898 11.6184 6.28412 11.7103 6.37606L15.3624 10.0281C15.4352 10.1009 15.4862 10.1752 15.5155 10.2511C15.545 10.3269 15.5597 10.4097 15.5597 10.4994C15.5597 10.5891 15.545 10.6719 15.5155 10.7477C15.4862 10.8236 15.4352 10.8979 15.3624 10.9706L11.7103 14.6227C11.6291 14.704 11.5326 14.7465 11.421 14.7502C11.3093 14.754 11.2075 14.7099 11.1157 14.6179C11.027 14.5261 10.9819 14.4279 10.9803 14.3231C10.9787 14.2184 11.0238 14.1201 11.1157 14.0281L14.2278 10.9161Z" fill="#6947BF"/>
</g>
</svg>
