<svg width="20" height="20" viewBox="0 0 20 20" fill="none" xmlns="http://www.w3.org/2000/svg">
<path d="M9.99996 1.66675L12.1136 2.11169L14.1666 2.7832L15.7747 4.22538L17.2168 5.83341L17.8884 7.88639L18.3333 10.0001L17.8884 12.1138L17.2168 14.1667L15.7747 15.7748L14.1666 17.217L12.1136 17.8885L9.99996 18.3334L7.88627 17.8885L5.83329 17.217L4.22525 15.7748L2.78308 14.1667L2.11157 12.1138L1.66663 10.0001L2.11157 7.88639L2.78308 5.83341L4.22525 4.22538L5.83329 2.7832L7.88627 2.11169L9.99996 1.66675Z" fill="url(#paint0_radial_2_7062)"/>
<path d="M10 3.33325L11.691 3.6892L13.3334 4.22642L14.6198 5.38015L15.7735 6.66659L16.3108 8.30897L16.6667 9.99992L16.3108 11.6909L15.7735 13.3333L14.6198 14.6197L13.3334 15.7734L11.691 16.3106L10 16.6666L8.30909 16.3106L6.66671 15.7734L5.38028 14.6197L4.22654 13.3333L3.68933 11.6909L3.33337 9.99992L3.68933 8.30897L4.22654 6.66659L5.38028 5.38015L6.66671 4.22642L8.30909 3.6892L10 3.33325Z" fill="url(#paint1_radial_2_7062)"/>
<path d="M5.97 12.25V11.2367L8.11667 8.82333V8.74333H6.03667V7.85H9.29V8.95L7.21667 11.2833V11.3567H9.37667V12.25H5.97ZM12.0315 12.3433C11.7515 12.3433 11.5026 12.3144 11.2848 12.2567C11.067 12.2033 10.8781 12.1233 10.7181 12.0167C10.5581 11.91 10.4248 11.7811 10.3181 11.63C10.2159 11.4789 10.1381 11.31 10.0848 11.1233C10.0359 10.9322 10.0115 10.7256 10.0115 10.5033V7.85H11.0915V10.47C11.0915 10.6833 11.1248 10.8589 11.1915 10.9967C11.2581 11.1344 11.3603 11.2367 11.4981 11.3033C11.6359 11.3656 11.8115 11.3967 12.0248 11.3967C12.2381 11.3967 12.4137 11.3656 12.5515 11.3033C12.6892 11.2367 12.7915 11.1344 12.8581 10.9967C12.9248 10.8589 12.9581 10.6833 12.9581 10.47V7.85H14.0315V10.5033C14.0315 11.0856 13.8648 11.5389 13.5315 11.8633C13.2026 12.1833 12.7026 12.3433 12.0315 12.3433Z" fill="#834700"/>
<defs>
<radialGradient id="paint0_radial_2_7062" cx="0" cy="0" r="1" gradientUnits="userSpaceOnUse" gradientTransform="translate(9.99996 10.0001) rotate(90) scale(8.33333)">
<stop stop-color="#FFC657"/>
<stop offset="1" stop-color="#FFBA36"/>
</radialGradient>
<radialGradient id="paint1_radial_2_7062" cx="0" cy="0" r="1" gradientUnits="userSpaceOnUse" gradientTransform="translate(10 9.99992) rotate(90) scale(6.66667)">
<stop stop-color="#FFCC9D"/>
<stop offset="1" stop-color="#F29100"/>
</radialGradient>
</defs>
</svg>
