<svg width="18" height="18" viewBox="0 0 18 18" fill="none" xmlns="http://www.w3.org/2000/svg">
<path d="M7.94854 12.4496L13.236 7.16213L12.186 6.11213L7.94854 10.3496L5.81104 8.21213L4.76104 9.26213L7.94854 12.4496ZM8.99854 16.4996C7.96104 16.4996 6.98604 16.3028 6.07354 15.909C5.16104 15.5153 4.36729 14.9809 3.69229 14.3059C3.01729 13.6309 2.48291 12.8371 2.08916 11.9246C1.69541 11.0121 1.49854 10.0371 1.49854 8.99963C1.49854 7.96213 1.69541 6.98713 2.08916 6.07463C2.48291 5.16213 3.01729 4.36838 3.69229 3.69338C4.36729 3.01838 5.16104 2.48401 6.07354 2.09026C6.98604 1.69651 7.96104 1.49963 8.99854 1.49963C10.036 1.49963 11.011 1.69651 11.9235 2.09026C12.836 2.48401 13.6298 3.01838 14.3048 3.69338C14.9798 4.36838 15.5142 5.16213 15.9079 6.07463C16.3017 6.98713 16.4985 7.96213 16.4985 8.99963C16.4985 10.0371 16.3017 11.0121 15.9079 11.9246C15.5142 12.8371 14.9798 13.6309 14.3048 14.3059C13.6298 14.9809 12.836 15.5153 11.9235 15.909C11.011 16.3028 10.036 16.4996 8.99854 16.4996Z" fill="#3CC28A"/>
</svg>
