<svg width="46" height="36" viewBox="0 0 46 36" fill="none" xmlns="http://www.w3.org/2000/svg">
<rect x="5" width="36" height="36" rx="16" fill="#FCFBFD"/>
<g clip-path="url(#clip0_2_6552)">
<path d="M9.12157 18.3388H13.8308V20.9953H5.55085V18.8563L10.1738 11.5769H5.6371V8.92041H13.7445V11.0594L9.12157 18.3388Z" fill="#1E2026"/>
<path d="M20.6147 12.3704H23.2022V20.9953H20.6147V20.1846C20.0972 20.8861 19.2749 21.2368 18.148 21.2368C17.228 21.2368 16.4575 20.9206 15.8365 20.2881C15.227 19.6556 14.9222 18.7816 14.9222 17.6661V12.3704H17.5097V17.2866C17.5097 17.7926 17.6477 18.1836 17.9237 18.4596C18.2112 18.7241 18.5735 18.8563 19.0104 18.8563C19.5049 18.8563 19.8959 18.7068 20.1834 18.4078C20.4709 18.1088 20.6147 17.6661 20.6147 17.0796V12.3704Z" fill="#1E2026"/>
<path d="M32.8622 20.9953L32.2585 19.0978H27.7735L27.1698 20.9953H24.151L28.2565 8.92041H31.7755L35.8809 20.9953H32.8622ZM28.6015 16.5103H31.4305L30.016 12.0771L28.6015 16.5103Z" fill="#1E2026"/>
<path d="M36.9105 12.1548C37.7449 11.5934 38.8362 11.5934 39.6705 12.1548V20.9953H36.9105V12.1548Z" fill="#1E2026"/>
<path d="M38.2877 6.76416C38.2877 6.76416 38.6387 8.56918 40.4439 8.92039C40.4439 8.92039 38.6387 9.2716 38.2877 11.0766C37.9366 9.2716 36.1314 8.92039 36.1314 8.92039C37.9366 8.56918 38.2877 6.76416 38.2877 6.76416Z" fill="#F9C94E"/>
<path d="M27.7372 23.8275C28.2121 23.8275 28.6161 23.9962 28.9489 24.3335C29.2863 24.6708 29.4549 25.0836 29.4549 25.5719C29.4549 26.0601 29.2863 26.4729 28.9489 26.8102C28.6161 27.1476 28.2121 27.3162 27.7372 27.3162C27.1469 27.3162 26.6986 27.0721 26.3923 26.5839V27.2363H25.9529V22.5758H26.3923V24.5599C26.6986 24.0716 27.1469 23.8275 27.7372 23.8275ZM26.7718 26.5106C27.0248 26.7636 27.3355 26.8901 27.7039 26.8901C28.0723 26.8901 28.383 26.7636 28.636 26.5106C28.889 26.2532 29.0155 25.9403 29.0155 25.5719C29.0155 25.2035 28.889 24.8927 28.636 24.6397C28.383 24.3823 28.0723 24.2536 27.7039 24.2536C27.3355 24.2536 27.0248 24.3823 26.7718 24.6397C26.5188 24.8927 26.3923 25.2035 26.3923 25.5719C26.3923 25.9403 26.5188 26.2532 26.7718 26.5106ZM31.7236 23.8275C32.2163 23.8275 32.6135 24.0028 32.9153 24.3535C33.2216 24.6997 33.3747 25.1102 33.3747 25.5852C33.3747 25.634 33.3703 25.7028 33.3614 25.7916H30.4386C30.483 26.1289 30.625 26.3974 30.8647 26.5972C31.1088 26.7925 31.4084 26.8901 31.7635 26.8901C32.0165 26.8901 32.234 26.8391 32.416 26.737C32.6024 26.6305 32.7422 26.4929 32.8354 26.3242L33.2216 26.5506C33.0751 26.7858 32.8754 26.9722 32.6224 27.1098C32.3694 27.2474 32.0809 27.3162 31.7569 27.3162C31.2331 27.3162 30.807 27.152 30.4785 26.8235C30.1501 26.4951 29.9859 26.0779 29.9859 25.5719C29.9859 25.0747 30.1479 24.6597 30.4719 24.3268C30.7959 23.9939 31.2131 23.8275 31.7236 23.8275ZM31.7236 24.2536C31.3774 24.2536 31.0866 24.3579 30.8514 24.5665C30.6206 24.7707 30.483 25.037 30.4386 25.3655H32.922C32.8776 25.0148 32.7422 24.7418 32.5159 24.5465C32.2895 24.3512 32.0254 24.2536 31.7236 24.2536ZM35.7405 24.3335H34.7818V26.3508C34.7818 26.5328 34.8173 26.6637 34.8883 26.7436C34.9593 26.8191 35.0659 26.859 35.2079 26.8635C35.3499 26.8635 35.5275 26.859 35.7405 26.8502V27.2363C35.2745 27.3073 34.9238 27.2741 34.6886 27.1365C34.4578 26.9989 34.3424 26.737 34.3424 26.3508V24.3335H33.6433V23.9074H34.3424V23.1084L34.7818 22.9753V23.9074H35.7405V24.3335ZM39.1342 23.9074H39.5736V27.2363H39.1342V26.5839C38.828 27.0721 38.3797 27.3162 37.7893 27.3162C37.3144 27.3162 36.9083 27.1476 36.5709 26.8102C36.238 26.4729 36.0716 26.0601 36.0716 25.5719C36.0716 25.0836 36.238 24.6708 36.5709 24.3335C36.9083 23.9962 37.3144 23.8275 37.7893 23.8275C38.3797 23.8275 38.828 24.0716 39.1342 24.5599V23.9074ZM36.8905 26.5106C37.1435 26.7636 37.4542 26.8901 37.8226 26.8901C38.191 26.8901 38.5017 26.7636 38.7547 26.5106C39.0077 26.2532 39.1342 25.9403 39.1342 25.5719C39.1342 25.2035 39.0077 24.8927 38.7547 24.6397C38.5017 24.3823 38.191 24.2536 37.8226 24.2536C37.4542 24.2536 37.1435 24.3823 36.8905 24.6397C36.6375 24.8927 36.511 25.2035 36.511 25.5719C36.511 25.9403 36.6375 26.2532 36.8905 26.5106Z" fill="#1E2026"/>
</g>
<defs>
<clipPath id="clip0_2_6552">
<rect width="46" height="23" fill="white" transform="translate(0 6.5)"/>
</clipPath>
</defs>
</svg>
