<svg width="24" height="24" viewBox="0 0 24 24" fill="none" xmlns="http://www.w3.org/2000/svg">
<mask id="mask0_2_288" style="mask-type:alpha" maskUnits="userSpaceOnUse" x="0" y="0" width="24" height="24">
<rect width="24" height="24" fill="#D9D9D9"/>
</mask>
<g mask="url(#mask0_2_288)">
<path d="M8.99962 9.30778V19.6923C8.99962 19.7821 9.02846 19.8559 9.08612 19.9135C9.14379 19.9712 9.21754 20 9.30737 20H15.9996V16.9038C15.9996 16.6461 16.0859 16.4311 16.2584 16.2588C16.4307 16.0863 16.6457 16 16.9034 16H19.9996V9.30778C19.9996 9.21795 19.9708 9.1442 19.9131 9.08653C19.8555 9.02887 19.7817 9.00003 19.6919 9.00003H9.30737C9.21754 9.00003 9.14379 9.02887 9.08612 9.08653C9.02846 9.1442 8.99962 9.21795 8.99962 9.30778ZM7.49962 19.6923V9.29228C7.49962 8.79362 7.67879 8.37028 8.03712 8.02228C8.39546 7.67412 8.82396 7.50003 9.32262 7.50003H19.6919C20.1905 7.50003 20.6165 7.67662 20.9699 8.02978C21.323 8.38312 21.4996 8.80912 21.4996 9.30778V16.0403C21.4996 16.2814 21.4528 16.5132 21.3591 16.7355C21.2656 16.958 21.1368 17.1513 20.9726 17.3153L17.3149 20.973C17.1509 21.1372 16.9576 21.266 16.7351 21.3595C16.5128 21.4532 16.281 21.5 16.0399 21.5H9.30737C8.80871 21.5 8.38271 21.3234 8.02937 20.9703C7.67621 20.6169 7.49962 20.1909 7.49962 19.6923ZM2.52462 6.42303C2.43112 5.92436 2.52829 5.47503 2.81612 5.07503C3.10379 4.67503 3.49704 4.42828 3.99587 4.33478L14.2304 2.52503C14.7189 2.43153 15.1605 2.5312 15.5554 2.82403C15.9502 3.11703 16.2047 3.50778 16.3189 3.99628L16.4746 4.80003C16.5323 5.05003 16.4935 5.24936 16.3581 5.39803C16.223 5.54686 16.0625 5.6347 15.8766 5.66153C15.6906 5.68853 15.514 5.65553 15.3466 5.56253C15.1795 5.46953 15.0638 5.29803 14.9996 5.04803L14.8246 4.21153C14.8118 4.14103 14.7733 4.08495 14.7091 4.04328C14.6451 4.00161 14.5746 3.9872 14.4976 4.00003L4.25937 5.81928C4.16954 5.83212 4.10221 5.87378 4.05737 5.94428C4.01254 6.01478 3.99646 6.09495 4.00912 6.18478L5.67262 15.6693C5.70979 15.8758 5.67262 16.0643 5.56112 16.2348C5.44962 16.4053 5.29071 16.5123 5.08437 16.5558C4.87154 16.5994 4.68079 16.5597 4.51212 16.4365C4.34362 16.3135 4.24079 16.1456 4.20362 15.9328L2.52462 6.42303Z" fill="#3D404B"/>
</g>
</svg>
