
<svg width="49" height="48" viewBox="0 0 49 48" fill="none" xmlns="http://www.w3.org/2000/svg">
<mask id="mask0_2_6599" style="mask-type:alpha" maskUnits="userSpaceOnUse" x="0" y="0" width="49" height="48">
<rect x="0.0870972" width="48" height="48" fill="#D9D9D9"/>
</mask>
<g mask="url(#mask0_2_6599)">
<path d="M23.0331 36.6885H25.3026V26.5805L29.6526 30.95L31.2526 29.35L24.0871 22.327L17.0026 29.4305L18.5831 31.0115L23.0331 26.5805V36.6885ZM11.9716 43C11.1873 43 10.5104 42.7153 9.9411 42.146C9.37176 41.5767 9.0871 40.8998 9.0871 40.1155V7.8845C9.0871 7.10017 9.37176 6.42333 9.9411 5.854C10.5104 5.28467 11.1873 5 11.9716 5H29.3486L39.0871 14.7385V40.1155C39.0871 40.8998 38.8024 41.5767 38.2331 42.146C37.6638 42.7153 36.9869 43 36.2026 43H11.9716ZM28.2141 15.7615V7.2695H11.9716C11.8179 7.2695 11.6769 7.3335 11.5486 7.4615C11.4206 7.58983 11.3566 7.73083 11.3566 7.8845V40.1155C11.3566 40.2692 11.4206 40.4102 11.5486 40.5385C11.6769 40.6665 11.8179 40.7305 11.9716 40.7305H36.2026C36.3563 40.7305 36.4973 40.6665 36.6256 40.5385C36.7536 40.4102 36.8176 40.2692 36.8176 40.1155V15.7615H28.2141Z" fill="#98A1BB"/>
</g>
</svg>
