<svg width="24" height="24" viewBox="0 0 24 24" fill="none" xmlns="http://www.w3.org/2000/svg">
<mask id="mask0_2_806" style="mask-type:alpha" maskUnits="userSpaceOnUse" x="2" y="2" width="20" height="20">
<rect x="2" y="2" width="20" height="20" fill="#D9D9D9"/>
</mask>
<g mask="url(#mask0_2_806)">
<path d="M18.2855 19.1475L13.0515 13.9133C12.6348 14.2574 12.1557 14.5266 11.614 14.7211C11.0723 14.9155 10.512 15.0127 9.93296 15.0127C8.50865 15.0127 7.30323 14.5196 6.31671 13.5333C5.33018 12.5471 4.83691 11.342 4.83691 9.91793C4.83691 8.49404 5.33004 7.28848 6.31629 6.30126C7.30254 5.31418 8.50768 4.82064 9.93171 4.82064C11.3556 4.82064 12.5612 5.3139 13.5484 6.30043C14.5355 7.28696 15.029 8.49237 15.029 9.91668C15.029 10.5118 14.9291 11.0802 14.7294 11.6219C14.5296 12.1636 14.263 12.6347 13.9296 13.0352L19.1636 18.2692L18.2855 19.1475ZM9.93296 13.7629C11.0067 13.7629 11.9162 13.3903 12.6613 12.645C13.4066 11.8999 13.7792 10.9904 13.7792 9.91668C13.7792 8.84293 13.4066 7.93348 12.6613 7.18834C11.9162 6.44307 11.0067 6.07043 9.93296 6.07043C8.85921 6.07043 7.94976 6.44307 7.20462 7.18834C6.45934 7.93348 6.08671 8.84293 6.08671 9.91668C6.08671 10.9904 6.45934 11.8999 7.20462 12.645C7.94976 13.3903 8.85921 13.7629 9.93296 13.7629ZM9.30796 12.1602V10.5417H7.68941V9.29168H9.30796V7.67314H10.558V9.29168H12.1765V10.5417H10.558V12.1602H9.30796Z" fill="#5B6170"/>
</g>
</svg>
